<?xml version="1.0" standalone="no"?>
<!DOCTYPE svg PUBLIC "-//W3C//DTD SVG 20010904//EN"
 "http://www.w3.org/TR/2001/REC-SVG-20010904/DTD/svg10.dtd">
<svg version="1.0" xmlns="http://www.w3.org/2000/svg"
 width="626.000000pt" height="352.000000pt" viewBox="0 0 626.000000 352.000000"
 preserveAspectRatio="xMidYMid meet">

<g transform="translate(0.000000,352.000000) scale(0.100000,-0.100000)"
fill="#000000" stroke="none">
<path d="M0 1760 l0 -1760 3130 0 3130 0 0 1760 0 1760 -3130 0 -3130 0 0
-1760z m1389 691 l23 -18 -103 -60 c-57 -33 -169 -97 -248 -143 l-144 -83 -34
18 c-18 10 -33 21 -33 24 0 10 483 281 500 281 8 0 26 -9 39 -19z m170 -139
l30 -18 -247 -143 c-174 -100 -252 -140 -267 -136 -22 6 -61 33 -54 38 2 2 78
46 169 97 91 52 199 113 240 137 41 24 80 43 87 43 7 0 26 -8 42 -18z m211
-161 c-1 -5 -459 -271 -483 -280 -11 -4 -77 28 -77 38 0 6 85 55 374 217 l129
73 28 -22 c16 -11 29 -23 29 -26z m135 -131 c10 -11 24 -20 32 -20 30 0 9 -21
-59 -61 -156 -90 -258 -152 -258 -156 0 -5 25 9 216 120 72 43 137 77 143 77
8 0 11 -24 9 -82 l-3 -81 -202 -116 -202 -116 -1 -257 c0 -232 6 -290 23 -245
3 7 6 6 6 -5 1 -9 11 -20 24 -24 12 -4 24 -10 27 -13 11 -15 81 -53 87 -47 4
3 1 6 -5 6 -7 0 -12 4 -12 10 0 5 6 7 14 4 14 -5 17 18 4 31 -3 3 -2 25 3 48
4 23 9 107 10 187 3 169 -4 157 120 222 21 11 39 24 39 28 0 29 93 8 141 -32
17 -15 42 -98 28 -98 -4 0 -6 -6 -3 -14 4 -10 -9 -22 -38 -37 -84 -42 -98 -57
-96 -97 l1 -37 4 38 c2 20 7 37 10 37 3 0 21 -9 39 -21 l33 -20 58 32 c32 18
122 70 200 116 79 45 147 83 152 83 4 0 8 -43 8 -96 -1 -78 2 -98 15 -108 9
-7 80 -48 157 -92 77 -43 141 -81 141 -84 0 -3 -24 -18 -53 -34 -139 -78 -502
-285 -583 -333 l-92 -54 -158 92 c-88 50 -199 115 -249 144 -49 29 -143 83
-207 120 -65 37 -118 71 -118 75 0 3 7 30 15 58 10 33 20 50 27 46 7 -4 8 -3
4 4 -4 6 3 51 14 99 11 48 23 99 26 113 3 14 8 34 11 45 5 18 3 18 -20 -4 -15
-13 -24 -28 -20 -34 3 -6 1 -7 -5 -3 -7 4 -12 2 -12 -5 0 -7 -8 -6 -25 5 -14
9 -25 12 -25 6 0 -5 5 -10 10 -10 6 0 10 -8 10 -17 0 -15 -2 -16 -10 -3 -8 13
-10 12 -10 -2 0 -10 2 -18 4 -18 2 0 12 -3 20 -6 11 -4 15 -2 13 7 -2 8 -2 10
1 5 2 -4 8 -2 13 5 6 9 9 10 9 2 0 -6 -4 -14 -10 -18 -5 -3 -6 -13 -3 -22 6
-15 5 -15 -17 0 -14 10 -33 14 -51 10 -16 -3 -35 0 -44 7 -8 6 -18 9 -22 7 -5
-3 -9 3 -9 14 0 10 4 19 8 19 4 0 8 24 10 53 3 45 6 52 24 52 12 1 29 9 39 18
21 21 34 14 15 -8 -7 -9 -11 -16 -9 -18 64 -37 61 -36 96 -13 22 14 36 33 42
56 5 19 15 54 21 78 6 23 15 40 19 38 5 -3 7 9 5 26 -2 17 0 47 6 67 8 31 20
43 77 75 168 97 185 108 171 118 -9 6 -6 7 10 3 16 -5 35 1 60 18 21 13 47 27
60 31 12 4 20 12 17 17 -11 17 12 9 30 -11z m-260 -110 c-3 -5 -11 -10 -16
-10 -6 0 -7 5 -4 10 3 6 11 10 16 10 6 0 7 -4 4 -10z m-250 -20 c3 -5 1 -10
-4 -10 -6 0 -11 5 -11 10 0 6 2 10 4 10 3 0 8 -4 11 -10z m190 -10 c-3 -5 -12
-10 -18 -10 -7 0 -6 4 3 10 19 12 23 12 15 0z m-76 -44 c-2 -2 -14 -9 -26 -15
-19 -10 -22 -9 -17 4 4 8 15 15 27 15 11 0 18 -2 16 -4z m-93 -31 c10 -8 28
-15 39 -15 14 0 16 -3 8 -11 -11 -11 -65 10 -78 31 -9 15 8 12 31 -5z m674
-27 c-11 -9 -20 -24 -20 -33 0 -10 -4 -13 -12 -8 -7 4 -5 -5 5 -20 9 -14 17
-38 17 -52 0 -38 23 -40 79 -9 l50 29 21 -23 c11 -12 25 -23 30 -23 6 -1 15
-3 20 -4 6 -1 15 -3 20 -4 6 0 10 -30 10 -65 l0 -64 -72 -42 c-39 -22 -77 -39
-85 -36 -8 4 -13 23 -13 59 0 52 1 54 40 76 36 20 40 26 40 62 0 25 -5 39 -13
39 -22 0 -107 -59 -107 -74 0 -16 -32 -24 -92 -22 l-43 1 4 60 c1 33 7 68 12
77 5 9 -61 -23 -147 -72 -153 -88 -156 -90 -185 -75 -16 9 -29 19 -29 23 0 8
355 212 370 212 5 0 10 -6 10 -14 0 -8 5 -18 12 -22 7 -4 8 -3 4 5 -10 16 12
41 35 41 11 0 19 5 19 10 0 6 8 5 20 -2 l21 -13 -21 -17z m-668 -49 c16 -12
19 -23 14 -42 l-6 -26 -38 21 c-20 12 -39 23 -41 24 -1 2 3 12 11 23 8 12 18
18 22 13 4 -4 5 7 2 23 -6 29 -6 29 4 5 6 -14 20 -32 32 -41z m27 27 c7 -9 8
-17 2 -20 -14 -9 -41 4 -41 20 0 18 24 18 39 0z m-626 -126 c15 15 21 30 19
51 -3 25 0 30 15 27 11 -2 18 -12 19 -28 0 -14 6 -35 13 -48 10 -20 9 -30 -9
-67 -12 -25 -20 -52 -18 -61 3 -18 327 -206 340 -198 10 6 10 -51 2 -95 -4
-17 -12 -31 -18 -31 -6 0 -112 59 -236 131 l-225 130 -22 -26 c-31 -35 -29
-46 10 -69 58 -34 361 -209 407 -234 25 -14 46 -26 48 -27 7 -5 -21 -95 -30
-95 -18 0 -833 472 -854 495 -27 29 -38 84 -24 121 l11 28 12 -23 c12 -24 318
-210 346 -211 16 0 61 38 61 51 0 5 -43 34 -95 64 -52 31 -95 58 -95 60 0 3
33 23 73 46 39 22 106 60 147 83 l75 43 3 -68 3 -69 22 20z m544 30 c-1 -12
-5 -16 -10 -11 -5 5 -6 14 -3 20 11 16 15 13 13 -9z m42 -4 c12 -14 5 -96 -8
-96 -17 1 -81 49 -73 54 6 4 14 1 18 -5 4 -8 9 -7 15 2 7 11 9 10 9 -3 0 -10
5 -18 10 -18 7 0 7 6 1 18 -8 15 -9 37 -2 60 2 7 20 0 30 -12z m-44 -95 c6 -1
17 -5 25 -10 11 -8 9 -15 -15 -38 -16 -15 -25 -23 -21 -16 3 7 4 24 0 38 -5
19 -10 23 -18 15 -9 -7 -13 -6 -13 4 0 8 7 12 16 11 9 -2 21 -4 26 -4z m1043
-59 l23 -18 -153 -88 c-267 -155 -234 -140 -269 -118 l-31 19 34 21 c18 11 58
33 88 50 30 16 102 57 160 91 58 33 109 61 115 61 5 0 20 -8 33 -18z m-1207
-175 c-9 -9 -10 -5 -7 13 6 36 8 37 13 16 3 -10 0 -23 -6 -29z m128 -34 c-5
-13 -7 -29 -3 -34 6 -11 -7 -12 -22 -1 -12 8 -15 42 -3 42 4 0 5 15 2 33 l-5
32 20 -23 c17 -19 19 -29 11 -49z m-78 -75 c-2 -30 1 -39 11 -36 7 3 14 17 16
31 2 15 10 27 17 27 22 0 25 -14 13 -53 -10 -31 -15 -36 -32 -31 -25 8 -73 44
-58 44 5 0 13 16 17 36 8 47 20 35 16 -18z m1659 -12 c0 -8 -7 -21 -15 -29
-13 -13 -13 -16 0 -27 8 -7 15 -21 15 -31 0 -9 15 -34 34 -53 38 -41 23 -49
-21 -12 l-29 25 -2 -39 c-2 -28 2 -41 15 -49 27 -14 10 -24 -20 -10 -20 9 -30
8 -48 -5 -38 -26 -50 -6 -43 78 6 70 18 101 35 90 5 -3 6 3 2 12 -5 13 -3 16
10 11 11 -4 15 -1 12 13 -4 19 18 39 43 40 6 0 12 -6 12 -14z m-1653 -57 c19
-12 32 -24 29 -26 -5 -5 -76 35 -76 43 0 8 14 3 47 -17z m370 -66 c-3 -10 -5
-4 -5 12 0 17 2 24 5 18 2 -7 2 -21 0 -30z m-391 -14 c19 -11 34 -23 34 -26 0
-4 -62 30 -79 44 -16 12 18 -1 45 -18z m20 -83 c-4 -22 -9 -42 -11 -44 -2 -3
-19 4 -37 15 -27 16 -33 25 -32 52 3 59 9 63 50 39 34 -20 36 -23 30 -62z
m484 50 c0 -2 -7 -6 -15 -10 -8 -3 -15 -1 -15 4 0 6 7 10 15 10 8 0 15 -2 15
-4z m1310 -54 c0 -30 -30 -82 -47 -82 -8 0 -16 -7 -19 -15 -4 -8 -13 -15 -22
-15 -10 0 -7 7 12 25 21 19 25 29 17 43 -7 13 -4 23 15 41 13 13 24 31 24 40
0 14 2 14 10 1 5 -8 10 -26 10 -38z m-1535 -99 c110 -63 272 -157 360 -208
214 -125 233 -134 287 -141 48 -7 59 -3 158 53 48 28 357 206 400 231 19 12
64 37 99 56 59 33 63 34 68 15 3 -10 9 -20 14 -20 5 -1 14 -3 19 -4 6 -1 15
-3 20 -4 6 0 10 -14 10 -29 0 -16 9 -38 21 -51 25 -26 20 -38 -9 -20 -11 7
-23 26 -26 42 -7 36 -25 27 -19 -10 l5 -28 -24 28 -24 29 -37 -22 c-20 -12
-34 -27 -30 -33 3 -5 1 -7 -5 -4 -14 9 -43 -3 -36 -14 3 -5 -2 -6 -10 -3 -9 3
-16 1 -16 -5 0 -6 -3 -10 -7 -9 -12 3 -74 -38 -68 -44 3 -3 -1 -8 -10 -12 -11
-4 -14 -2 -9 7 4 6 -1 5 -12 -4 -10 -9 -34 -21 -51 -29 -18 -7 -31 -16 -28
-20 3 -4 -3 -7 -13 -6 -9 0 -16 -4 -15 -10 1 -7 -6 -10 -16 -7 -10 3 -22 0
-25 -6 -4 -7 -1 -8 8 -5 9 3 16 4 16 2 0 -3 -31 -17 -70 -32 -40 -16 -70 -34
-70 -42 0 -8 -6 -11 -15 -8 -8 4 -15 1 -15 -5 0 -6 -9 -11 -20 -11 -11 0 -23
-7 -26 -15 -3 -8 -16 -17 -27 -21 -12 -4 -33 -15 -46 -25 -35 -28 -87 -23
-156 14 -66 36 -644 368 -740 425 -33 19 -61 36 -62 36 -1 1 3 23 9 49 8 39
13 47 26 42 10 -3 107 -58 217 -122z m-543 88 c5 -1 19 -24 33 -52 17 -36 20
-49 10 -45 -8 3 -17 1 -20 -4 -4 -6 2 -10 12 -10 18 0 73 -53 73 -71 0 -5 -19
-21 -42 -36 -49 -31 -79 -59 -72 -66 3 -2 -6 -2 -20 0 -27 6 -36 27 -36 90 0
26 6 48 17 58 12 12 13 19 4 24 -6 4 -9 15 -5 24 6 15 29 22 62 18 17 -3 15
13 -7 40 -18 23 -18 23 -47 4 -16 -11 -33 -18 -37 -17 -5 1 -5 -7 -2 -19 4
-12 3 -19 -2 -16 -11 7 -11 -38 0 -49 4 -4 7 -2 7 5 0 7 5 9 10 6 7 -4 7 -12
0 -25 -5 -10 -10 -28 -10 -40 0 -12 -4 -19 -10 -15 -5 3 -6 13 -3 23 3 9 2 14
-2 9 -8 -6 -35 51 -37 79 -1 6 -11 9 -22 7 -20 -4 -19 -3 2 9 12 8 19 17 16
21 -4 4 -1 7 7 8 8 0 30 11 49 23 19 13 42 22 50 20 8 -1 18 -3 22 -3z m213
-111 c39 -26 25 -26 -17 0 -18 11 -28 20 -23 20 6 0 24 -9 40 -20z m-175 -170
c13 -8 13 -10 -2 -10 -24 0 -19 -39 7 -53 11 -6 30 -10 42 -8 14 1 26 -6 33
-19 6 -11 15 -18 21 -15 8 5 11 -3 11 -25 0 -3 9 -14 19 -24 11 -11 19 -14 19
-8 0 7 7 12 15 12 8 0 15 6 16 13 0 6 4 2 9 -10 5 -13 14 -23 20 -23 6 0 8 5
4 11 -4 8 1 9 17 4 16 -4 20 -3 10 3 -10 8 -11 14 -1 32 7 12 7 20 2 16 -6 -3
-25 13 -44 36 l-33 42 48 -33 c27 -18 63 -37 80 -42 29 -8 67 -53 67 -79 0
-15 -38 -46 -85 -70 -25 -13 -53 -38 -64 -55 -31 -53 -135 -79 -212 -54 -93
32 -105 102 -25 143 38 19 46 13 46 -34 0 -25 5 -40 16 -44 25 -9 59 -7 71 5
8 8 21 8 48 -1 34 -11 38 -10 63 17 30 31 39 65 14 55 -10 -4 -13 -1 -8 7 5 7
17 11 27 8 11 -3 17 -1 13 4 -7 12 -25 11 -44 -1 -13 -9 -12 -12 4 -25 11 -8
16 -18 12 -22 -10 -10 -48 36 -40 48 3 5 -2 9 -10 9 -9 0 -16 5 -16 11 0 6 -6
9 -12 7 -34 -12 -207 110 -191 135 3 5 1 7 -5 3 -6 -3 -13 -2 -17 4 -3 5 1 10
9 10 9 0 16 7 16 15 0 17 9 19 30 5z m1410 -150 c-8 -5 -19 -10 -25 -10 -5 0
-3 5 5 10 8 5 20 10 25 10 6 0 3 -5 -5 -10z"/>
<path d="M1558 1755 c-26 -14 -50 -29 -53 -35 -7 -11 82 35 100 51 14 14 4 10
-47 -16z"/>
<path d="M855 1629 c-4 -6 -5 -12 -2 -15 2 -3 7 2 10 11 7 17 1 20 -8 4z"/>
<path d="M800 1569 c0 -5 5 -7 10 -4 6 3 10 8 10 11 0 2 -4 4 -10 4 -5 0 -10
-5 -10 -11z"/>
<path d="M1365 1540 c-3 -5 -1 -10 4 -10 6 0 11 5 11 10 0 6 -2 10 -4 10 -3 0
-8 -4 -11 -10z"/>
<path d="M1306 1283 c-6 -14 -5 -15 5 -6 7 7 10 15 7 18 -3 3 -9 -2 -12 -12z"/>
</g>
</svg>
